<?xml version="1.0" encoding="UTF-8"?>
<svg width="45px" height="57px" viewBox="0 0 45 57" version="1.1" xmlns="http://www.w3.org/2000/svg" xmlns:xlink="http://www.w3.org/1999/xlink">
    <title>case_lookup_icon</title>
    <g id="case_lookup_icon" stroke="none" stroke-width="1" fill="none" fill-rule="evenodd">
        <g id="case-lookup-image" fill-rule="nonzero">
            <path d="M42.2759553,57 C43.3709406,57 44.2040816,56.1189352 44.2040816,54.87076 C44.2040816,54.3323315 43.9422373,53.793903 43.5375688,53.3778446 L38.1102502,47.7977673 C39.3242557,46.0111636 40.0383766,43.8329755 40.0383766,41.4834693 C40.0383766,35.3894375 35.2537668,30.4701589 29.3503676,30.4701589 C23.4469684,30.4701589 18.6147506,35.4383856 18.6147506,41.4834693 C18.6147506,47.5530271 23.4469684,52.4723057 29.3503676,52.4723057 C31.4927302,52.4723057 33.5160727,51.8359811 35.1823547,50.685702 L40.5382612,56.2168313 C41.1095579,56.7797338 41.6332465,57 42.2759553,57 Z M29.3503676,48.9725204 C25.3036827,48.9725204 22.0187267,45.6195792 22.0187267,41.4834693 C22.0187267,37.3963074 25.3036827,33.9944182 29.3503676,33.9944182 C33.3256404,33.9944182 36.6105964,37.3963074 36.6105964,41.4834693 C36.6105964,45.6195792 33.3494445,48.9725204 29.3503676,48.9725204 Z" id="magnifier" fill="#E94F3D"></path>
            <path d="M20.4238568,52.4723057 C19.1622432,51.3709747 18.0910619,50.0493774 17.305529,48.531988 L7.59348521,48.531988 C5.14167024,48.531988 3.83244865,47.2348647 3.83244865,44.7874624 L3.83244865,7.75826535 C3.83244865,5.33533705 5.11786621,3.94031773 7.59348521,3.94031773 L32.4686954,3.94031773 C34.8490983,3.94031773 36.2059279,5.31086303 36.2059279,7.75826535 L36.2059279,29.0996136 C37.6817777,29.9072563 38.9671953,30.9841134 40.0383766,32.2812366 L40.0383766,7.68484328 C40.0383766,2.56977243 37.5865616,-2.47964914e-14 32.6591276,-2.47964914e-14 L7.37924895,-2.47964914e-14 C2.475619,-2.47964914e-14 4.95929828e-14,2.59424646 4.95929828e-14,7.68484328 L4.95929828e-14,44.8119365 C4.95929828e-14,49.9270073 2.475619,52.4723057 7.37924895,52.4723057 L20.4238568,52.4723057 Z" id="Path" fill="#8E8E93"></path>
            <path d="M29.0647193,11.7334115 C29.8978603,11.7334115 30.5405691,11.0481389 30.5405691,10.191548 C30.5405691,9.35943125 29.8978603,8.72310665 29.0647193,8.72310665 L11.0212654,8.72310665 C10.1405163,8.72310665 9.52161155,9.35943125 9.52161155,10.191548 C9.52161155,11.0481389 10.1405163,11.7334115 11.0212654,11.7334115 L29.0647193,11.7334115 Z" id="Path" fill="#C7C7CC"></path>
            <path d="M29.0647193,20.2748456 C29.8978603,20.2748456 30.5405691,19.5895729 30.5405691,18.7329821 C30.5405691,17.9008653 29.8978603,17.2645407 29.0647193,17.2645407 L11.0212654,17.2645407 C10.1405163,17.2645407 9.52161155,17.9008653 9.52161155,18.7329821 C9.52161155,19.5895729 10.1405163,20.2748456 11.0212654,20.2748456 L29.0647193,20.2748456 Z" id="Path" fill="#C7C7CC"></path>
        </g>
    </g>
</svg>